{
    "accessors" : [
        {
            "bufferView" : 0,
            "componentType" : 5123,
            "count" : 2367,
            "max" : [
                514
            ],
            "min" : [
                0
            ],
            "type" : "SCALAR"
        },
        {
            "bufferView" : 1,
            "componentType" : 5126,
            "count" : 515,
            "max" : [
                1.5468547344207764,
                1.6051088571548462,
                1.5454871654510498
            ],
            "min" : [
                -1.5468547344207764,
                -0.796159565448761,
                -1.548222303390503
            ],
            "type" : "VEC3"
        },
        {
            "bufferView" : 2,
            "componentType" : 5126,
            "count" : 515,
            "max" : [
                0.9917600154876709,
                0.9867244362831116,
                0.9908444285392761
            ],
            "min" : [
                -0.9974059462547302,
                -1.0,
                -0.9979247450828552
            ],
            "type" : "VEC3"
        },
        {
            "bufferView" : 3,
            "componentType" : 5123,
            "count" : 516,
            "max" : [
                191
            ],
            "min" : [
                0
            ],
            "type" : "SCALAR"
        },
        {
            "bufferView" : 4,
            "componentType" : 5126,
            "count" : 192,
            "max" : [
                -0.5977721214294434,
                1.3620169162750244,
                -1.2278567552566528
            ],
            "min" : [
                -1.3974210023880005,
                -0.05625194311141968,
                -2.3214287757873535
            ],
            "type" : "VEC3"
        },
        {
            "bufferView" : 5,
            "componentType" : 5126,
            "count" : 192,
            "max" : [
                0.9938951730728149,
                0.9743644595146179,
                0.9619128704071045
            ],
            "min" : [
                -0.9904477000236511,
                -0.9678335189819336,
                -0.9889217615127563
            ],
            "type" : "VEC3"
        },
        {
            "bufferView" : 6,
            "componentType" : 5123,
            "count" : 972,
            "max" : [
                190
            ],
            "min" : [
                0
            ],
            "type" : "SCALAR"
        },
        {
            "bufferView" : 7,
            "componentType" : 5126,
            "count" : 191,
            "max" : [
                0.949457049369812,
                1.7168195247650146,
                0.9480134844779968
            ],
            "min" : [
                -0.9494571089744568,
                1.3106815814971924,
                -0.950901210308075
            ],
            "type" : "VEC3"
        },
        {
            "bufferView" : 8,
            "componentType" : 5126,
            "count" : 191,
            "max" : [
                0.9801629781723022,
                0.964568018913269,
                0.9996337890625
            ],
            "min" : [
                -0.999359130859375,
                -0.8794518709182739,
                -0.9987182021141052
            ],
            "type" : "VEC3"
        }
    ],
    "asset" : {
        "generator" : "Khronos Blender glTF 2.0 exporter",
        "version" : "2.0"
    },
    "bufferViews" : [
        {
            "buffer" : 0,
            "byteLength" : 4734,
            "byteOffset" : 0,
            "target" : 34963
        },
        {
            "buffer" : 0,
            "byteLength" : 6180,
            "byteOffset" : 4736,
            "target" : 34962
        },
        {
            "buffer" : 0,
            "byteLength" : 6180,
            "byteOffset" : 10916,
            "target" : 34962
        },
        {
            "buffer" : 0,
            "byteLength" : 1032,
            "byteOffset" : 17096,
            "target" : 34963
        },
        {
            "buffer" : 0,
            "byteLength" : 2304,
            "byteOffset" : 18128,
            "target" : 34962
        },
        {
            "buffer" : 0,
            "byteLength" : 2304,
            "byteOffset" : 20432,
            "target" : 34962
        },
        {
            "buffer" : 0,
            "byteLength" : 1944,
            "byteOffset" : 22736,
            "target" : 34963
        },
        {
            "buffer" : 0,
            "byteLength" : 2292,
            "byteOffset" : 24680,
            "target" : 34962
        },
        {
            "buffer" : 0,
            "byteLength" : 2292,
            "byteOffset" : 26972,
            "target" : 34962
        }
    ],
    "buffers" : [
        {
            "byteLength" : 29264,
            "uri" : "teterapablo.bin"
        }
    ],
    "materials" : [
        {
            "name" : "Material",
            "pbrMetallicRoughness" : {
                "baseColorFactor" : [
                    0.0,
                    0.0,
                    0.0,
                    1.0
                ],
                "metallicFactor" : 0.0
            }
        },
        {
            "name" : "Material.001",
            "pbrMetallicRoughness" : {
                "baseColorFactor" : [
                    0.640000066757203,
                    0.29293420751294796,
                    0.12768653821478093,
                    1.0
                ],
                "metallicFactor" : 0.0
            }
        },
        {
            "name" : "Material.002",
            "pbrMetallicRoughness" : {
                "baseColorFactor" : [
                    0.640000066757203,
                    0.42552986779108437,
                    0.14879276974190425,
                    1.0
                ],
                "metallicFactor" : 0.0
            }
        },
        {
            "name" : "Material.003",
            "pbrMetallicRoughness" : {
                "baseColorFactor" : [
                    0.6400000190734865,
                    0.6400000190734865,
                    0.6400000190734865,
                    1.0
                ],
                "metallicFactor" : 0.0
            }
        },
        {
            "name" : "Material.004",
            "pbrMetallicRoughness" : {
                "baseColorFactor" : [
                    0.0,
                    0.0,
                    0.0,
                    1.0
                ],
                "metallicFactor" : 0.0
            }
        },
        {
            "name" : "Material.005",
            "pbrMetallicRoughness" : {
                "baseColorFactor" : [
                    0.0,
                    0.0,
                    0.0,
                    1.0
                ],
                "metallicFactor" : 0.0
            }
        },
        {
            "name" : "Material.006",
            "pbrMetallicRoughness" : {
                "baseColorFactor" : [
                    0.0,
                    0.0,
                    0.0,
                    1.0
                ],
                "metallicFactor" : 0.0
            }
        },
        {
            "name" : "Material.007",
            "pbrMetallicRoughness" : {
                "baseColorFactor" : [
                    0.0,
                    0.0,
                    0.0,
                    1.0
                ],
                "metallicFactor" : 0.0
            }
        }
    ],
    "meshes" : [
        {
            "name" : "Cylinder",
            "primitives" : [
                {
                    "attributes" : {
                        "NORMAL" : 2,
                        "POSITION" : 1
                    },
                    "indices" : 0,
                    "material" : 1
                },
                {
                    "attributes" : {
                        "NORMAL" : 5,
                        "POSITION" : 4
                    },
                    "indices" : 3,
                    "material" : 7
                },
                {
                    "attributes" : {
                        "NORMAL" : 8,
                        "POSITION" : 7
                    },
                    "indices" : 6,
                    "material" : 2
                }
            ]
        }
    ],
    "nodes" : [
        {
            "name" : "Camera",
            "rotation" : [
                0.49003419280052185,
                0.3192455470561981,
                -0.1989421397447586,
                0.7863655686378479
            ],
            "translation" : [
                8.55864143371582,
                6.851768970489502,
                6.51772928237915
            ]
        },
        {
            "mesh" : 0,
            "name" : "Cylinder",
            "rotation" : [
                0.0021461036521941423,
                -0.7686216831207275,
                0.0025788936764001846,
                0.6396948099136353
            ],
            "scale" : [
                0.3291231095790863,
                0.3291231691837311,
                0.3291231095790863
            ],
            "translation" : [
                1.244168996810913,
                2.467078924179077,
                -0.48843032121658325
            ]
        },
        {
            "name" : "Lamp",
            "rotation" : [
                0.16907575726509094,
                0.7558802962303162,
                -0.27217137813568115,
                0.570947527885437
            ],
            "scale" : [
                1.0,
                1.0,
                0.9999999403953552
            ],
            "translation" : [
                -0.19446778297424316,
                6.208327293395996,
                -3.6606969833374023
            ]
        },
        {
            "name" : "Lamp.001",
            "rotation" : [
                0.16907575726509094,
                0.7558802962303162,
                -0.27217137813568115,
                0.570947527885437
            ],
            "scale" : [
                1.0,
                1.0,
                0.9999999403953552
            ],
            "translation" : [
                4.044177055358887,
                4.799324989318848,
                1.8996968269348145
            ]
        },
        {
            "name" : "Lamp.003",
            "rotation" : [
                0.16907575726509094,
                0.7558802962303162,
                -0.27217137813568115,
                0.570947527885437
            ],
            "scale" : [
                1.0,
                1.0,
                0.9999999403953552
            ],
            "translation" : [
                0.24602031707763672,
                6.504186153411865,
                -2.576610803604126
            ]
        }
    ],
    "scene" : 0,
    "scenes" : [
        {
            "name" : "Scene",
            "nodes" : [
                1,
                2,
                0,
                4,
                3
            ]
        }
    ]
}
